<svg width="1200" height="260" viewBox="0 0 1200 260" xmlns="http://www.w3.org/2000/svg">
  <defs>
    <linearGradient id="bg" x1="0" y1="0" x2="1" y2="1">
      <stop offset="0" stop-color="#0b1220"/>
      <stop offset="1" stop-color="#0f1a30"/>
    </linearGradient>
    <clipPath id="r"><rect width="1200" height="260" rx="14"/></clipPath>
  </defs>
  <g clip-path="url(#r)">
    <rect width="1200" height="260" fill="url(#bg)"/>
    <g stroke="#334155" stroke-width="2">
      <line x1="900" y1="70" x2="1000" y2="120"/>
      <line x1="900" y1="70" x2="820" y2="140"/>
      <line x1="1000" y1="120" x2="820" y2="140"/>
      <line x1="1000" y1="120" x2="1080" y2="190"/>
      <line x1="820" y1="140" x2="900" y2="205"/>
      <line x1="900" y1="205" x2="1080" y2="190"/>
    </g>
    <g stroke="#38bdf8" stroke-width="3">
      <line x1="900" y1="70" x2="1080" y2="190"/>
    </g>
    <circle cx="900" cy="70" r="16" fill="#38bdf8"/>
    <circle cx="1000" cy="120" r="11" fill="#94a3b8"/>
    <circle cx="820" cy="140" r="13" fill="#34d399"/>
    <circle cx="1080" cy="190" r="16" fill="#f59e0b"/>
    <circle cx="900" cy="205" r="9" fill="#94a3b8"/>
    <text x="64" y="122" font-family="ui-sans-serif,-apple-system,'Segoe UI',Helvetica,Arial,sans-serif" font-size="58" font-weight="800" fill="#e6edf3">concept-atlas</text>
    <text x="64" y="168" font-family="ui-sans-serif,-apple-system,'Segoe UI',Helvetica,Arial,sans-serif" font-size="23" fill="#8b98ab">Find where a model keeps a concept. Test whether it matters.</text>
    <rect x="0" y="252" width="1200" height="8" fill="#38bdf8"/>
  </g>
</svg>
